# xmcd
#
# Track frame offsets:
#	150
#	18150
#	32653
#	48056
#	63386
#	79038
#	93343
#	108448
#	124273
#	141298
#	158357
#	174523
#	196434
#	221457
#	240004
#	260645
#
# Disc length: 3660 seconds
#
# Revision: 1
# Processed by: cddbd v1.5.2PL0 Copyright (c) Steve Scherf et al.
# Submitted via: audiograbber 1.83.01
#
DISCID=c70e4a10
DTITLE=Diverse - Howdy! (1/2)
DYEAR=2015
DGENRE=Country
TTITLE0=James Bay - Hold Back The River
TTITLE1=The Band Perry - Better Dig Two
TTITLE2=The Bosshoss - Do It
TTITLE3=Billy Ray Cyrus - Achy Breaky Heart
TTITLE4=Kacey Musgraves - Merry Go 'Round
TTITLE5=Family Of The Year - Hero
TTITLE6=Billy Currington - Hey Girl
TTITLE7=Florida Georgia Line - Cruise
TTITLE8=Gary Allan - Every Storm (Runs Out Of Rain)
TTITLE9=Martina McBride - I'm Gonna Love You Through It
TTITLE10=Kip Moore - Somethin' 'Bout A Truck
TTITLE11=Sheryl Crow - Run, Baby, Run
TTITLE12=Toby Keith - I Love This Bar
TTITLE13=Sugarland - Stuck Like Glue
TTITLE14=Lucinda Williams - Right In Time
TTITLE15=The Broken Circle Breakdown Bluegrass Band - If I Needed You
EXTD=
EXTT0=
EXTT1=
EXTT2=
EXTT3=
EXTT4=
EXTT5=
EXTT6=
EXTT7=
EXTT8=
EXTT9=
EXTT10=
EXTT11=
EXTT12=
EXTT13=
EXTT14=
EXTT15=
PLAYORDER=
